<svg width="1255" height="444" viewBox="0 0 1255 444" fill="none" xmlns="http://www.w3.org/2000/svg">
<mask id="mask0_1_62" style="mask-type:luminance" maskUnits="userSpaceOnUse" x="0" y="0" width="1255" height="444">
<path d="M1255 0H0V444H1255V0Z" fill="white"/>
</mask>
<g mask="url(#mask0_1_62)">
<path d="M100.502 330.63C133.511 337.707 205.164 338.375 265.545 338.375C535.25 338.375 871.241 338.508 871.241 338.508L1067.41 334.502L1137.99 327.158C1143.23 327.158 1147.65 323.285 1148.33 318.078L1164.29 236.756C1165.9 227.942 1158.26 230.613 1158.26 230.613C1123.64 190.419 1064.73 157.703 1003.28 132.332C931.086 102.42 855.273 82.6574 811.262 72.3753C804.553 70.7729 798.514 69.4376 793.415 68.3693C780.534 65.5651 773.154 64.2298 773.154 64.2298C750.612 59.9567 727.264 59.6896 708.479 60.7579C695.731 61.4256 684.997 62.7609 678.154 63.8292C673.055 64.6304 669.968 65.1645 669.7 65.1645C614.551 78.3844 498.619 137.94 498.619 137.94H479.967C471.917 137.273 471.917 142.214 471.917 142.214L425.892 162.644L275.609 168.653L107.882 302.721H104.662L103.722 303.389L99.6969 306.193L82.79 311.668L85.6078 313.537L91.9144 317.677C92.5853 325.956 100.502 329.962 100.502 329.962M622.2 136.205C622.2 136.205 631.995 135.27 637.228 126.991L697.073 95.6102H715.993L716.664 96.9456L766.445 101.619L768.323 100.818L774.093 101.352L756.784 143.148C756.784 143.148 648.499 159.706 627.433 154.098L622.2 136.205Z" fill="#101010"/>
</g>
<mask id="mask1_1_62" style="mask-type:luminance" maskUnits="userSpaceOnUse" x="0" y="0" width="1255" height="444">
<path d="M1255 0H0V444H1255V0Z" fill="white"/>
</mask>
<g mask="url(#mask1_1_62)">
<path d="M1060.44 69.037H1103.11V59.1555C1103.11 57.4196 1104.58 55.9507 1106.33 55.9507H1195.56V99.2156L1140.54 99.3492V107.495H1134.1C1121.62 122.985 1115.99 147.555 1115.99 147.555L1110.22 143.282C1111.29 127.658 1122.97 112.302 1127.12 107.361H1120.55C1111.96 116.976 1105.66 128.326 1101.76 140.611L1094.38 139.81C1094.38 139.81 1098.41 125.255 1110.62 107.228H1100.15L1091.3 140.478H1083.65C1086.07 129.261 1089.02 118.177 1092.51 107.228H1085.26L1076.27 138.608L1068.76 137.94L1077.48 107.094H1060.44C1058.69 107.094 1057.22 105.625 1057.22 103.889V71.8412C1057.22 70.5059 1058.69 69.037 1060.44 69.037Z" fill="#101010"/>
</g>
<mask id="mask2_1_62" style="mask-type:luminance" maskUnits="userSpaceOnUse" x="0" y="0" width="1255" height="444">
<path d="M1255 0H0V444H1255V0Z" fill="white"/>
</mask>
<g mask="url(#mask2_1_62)">
<path d="M1102.03 80.788V85.1946C1102.03 85.1946 1091.7 87.7317 1102.03 94.809V101.486L1097.61 98.0138C1097.07 97.6132 1096.4 97.7468 1095.99 98.1474C1095.99 98.2809 1095.86 98.2809 1095.86 98.4144L1092.64 106.026L1095.86 90.5359L1090.49 89.8683C1090.23 89.8683 1089.96 89.6012 1089.96 89.2006C1089.96 88.9335 1090.09 88.8 1090.36 88.8L1097.47 85.5952C1097.47 85.5952 1089.29 85.1946 1084.59 88.3994C1083.52 89.2006 1082.17 89.4677 1080.83 89.4677H1079.09L1078.28 89.2006C1076.67 88.6665 1074.93 88.8 1073.45 89.4677L1067.55 92.4054C1067.28 92.5389 1067.01 92.4054 1066.74 92.1383C1066.61 92.0048 1066.61 91.8713 1066.74 91.7377C1067.68 88.9335 1073.45 82.3904 1102.03 80.788Z" fill="#444444"/>
</g>
<mask id="mask3_1_62" style="mask-type:luminance" maskUnits="userSpaceOnUse" x="0" y="0" width="1255" height="444">
<path d="M1255 0H0V444H1255V0Z" fill="white"/>
</mask>
<g mask="url(#mask3_1_62)">
<path d="M104.393 300.451C105.064 300.318 105.869 300.451 106.406 300.852C106.674 301.252 106.809 301.653 106.809 302.054V314.873C106.809 323.82 127.875 324.354 127.875 324.354L216.972 327.158C216.837 326.624 216.569 325.956 216.435 325.422C213.885 316.475 212.141 307.261 211.068 298.048C208.25 273.611 212.275 258.922 212.275 258.922C232.805 185.078 307.544 186.547 307.544 186.547C364.303 187.348 386.04 226.473 392.884 243.699C393.823 246.103 394.628 248.506 395.299 250.91C395.433 251.444 395.433 251.711 395.433 251.711C399.458 271.474 398.922 291.237 397.446 305.659C397.043 309.798 396.506 313.537 396.104 316.609C395.031 323.82 393.957 328.093 393.957 328.093L869.496 331.297C856.749 287.632 868.557 258.522 868.557 258.522C895.259 187.482 958.861 189.752 958.861 189.752C1007.84 188.149 1031.45 225.539 1031.45 225.539C1033.87 225.005 1039.37 224.07 1046.75 223.002C1076.14 218.461 1134.64 210.182 1134.64 210.182C1134.5 210.316 1134.37 210.449 1134.24 210.449C1128.47 214.322 1062.85 228.209 1062.85 228.209C1077.48 241.563 1101.09 269.071 1101.09 269.071C1110.89 280.288 1125.25 275.213 1125.25 275.213L1134.64 272.676C1138.93 271.207 1140.27 271.207 1141.08 271.341C1141.35 271.474 1141.62 271.741 1141.48 272.142C1141.48 272.142 1141.48 272.275 1141.35 272.275C1122.16 300.051 1104.45 276.014 1104.45 276.014L1067.68 236.755C1053.33 223.135 1036.55 231.815 1036.55 231.815C1048.63 249.041 1052.12 273.21 1052.92 289.368C1053.33 295.644 1053.19 300.852 1053.19 303.923C1053.19 305.926 1053.06 306.994 1053.06 306.994L1128.47 288.433C1151.01 282.424 1158.39 229.278 1158.39 229.278C1163.49 226.74 1159.6 223.135 1159.6 223.135C1148.06 218.995 1146.45 193.624 1146.45 193.624C1144.03 192.422 1141.75 191.087 1139.74 189.351C1136.12 186.28 1133.3 182.407 1131.69 177.867L1118.27 152.629L1116.39 149.024C1107.53 135.537 1053.33 135.003 1053.33 135.003L1056.95 137.273C1055.87 137.139 1054.8 136.872 1053.73 136.739C1031.05 133.267 1008.11 131.13 985.161 130.463C969.462 129.928 953.897 129.928 938.868 130.195C899.419 130.997 859.97 133.934 820.789 139.142C820.789 139.142 697.073 153.03 659.905 156.502C622.602 159.974 556.988 153.564 556.988 153.564L533.64 150.493C496.338 141.946 471.782 140.878 471.782 140.878C471.782 140.878 463.597 143.816 366.584 148.757C269.571 153.697 225.559 170.923 225.559 170.923C172.021 183.342 145.184 214.589 145.184 214.589C118.751 229.678 105.198 245.435 105.198 245.435L111.907 255.984C111.907 256.786 111.907 257.587 112.042 258.522V259.323L112.847 288.032L112.578 288.166L100.905 294.576C96.3424 298.448 104.393 300.451 104.393 300.451Z" fill="#0000BF"/>
</g>
<mask id="mask4_1_62" style="mask-type:luminance" maskUnits="userSpaceOnUse" x="0" y="0" width="1255" height="444">
<path d="M1255 0H0V444H1255V0Z" fill="white"/>
</mask>
<g mask="url(#mask4_1_62)">
<path d="M126.265 298.849C126.265 298.849 117.811 304.19 116.47 298.849C116.47 298.849 115.53 289.234 124.789 294.843C124.789 294.709 128.143 294.309 126.265 298.849Z" fill="black"/>
</g>
<mask id="mask5_1_62" style="mask-type:luminance" maskUnits="userSpaceOnUse" x="0" y="0" width="1255" height="444">
<path d="M1255 0H0V444H1255V0Z" fill="white"/>
</mask>
<g mask="url(#mask5_1_62)">
<path d="M1053.19 289.368C1053.59 295.644 1053.46 300.852 1053.46 303.923C1053.46 305.926 1053.33 306.994 1053.33 306.994L1128.74 288.3C1151.28 282.291 1158.66 229.144 1158.66 229.144C1163.76 226.607 1159.87 223.002 1159.87 223.002C1148.33 218.862 1146.72 193.491 1146.72 193.491C1144.3 192.289 1142.02 190.953 1140.01 189.217L1144.7 205.509C1144.7 205.509 1145.91 208.046 1142.69 208.98C1142.69 208.98 1139.47 209.515 1134.24 210.583C1128.47 214.455 1062.85 228.343 1062.85 228.343C1077.48 241.696 1101.09 269.204 1101.09 269.204C1110.89 280.421 1125.25 275.347 1125.25 275.347L1134.64 272.676C1138.93 271.207 1140.27 271.207 1141.08 271.341C1141.35 271.474 1141.62 271.741 1141.48 272.142C1141.48 272.142 1141.48 272.275 1141.35 272.275C1122.16 300.051 1104.45 276.014 1104.45 276.014L1067.68 236.755C1053.33 223.135 1036.55 231.815 1036.55 231.815C1048.76 249.041 1052.25 273.21 1053.19 289.368Z" fill="#000139"/>
</g>
<mask id="mask6_1_62" style="mask-type:luminance" maskUnits="userSpaceOnUse" x="0" y="0" width="1255" height="444">
<path d="M1255 0H0V444H1255V0Z" fill="white"/>
</mask>
<g mask="url(#mask6_1_62)">
<path d="M224.754 172.793C224.754 172.793 172.557 181.74 139.683 223.135C139.683 223.135 190.269 207.111 224.754 172.793Z" fill="#101010"/>
</g>
<mask id="mask7_1_62" style="mask-type:luminance" maskUnits="userSpaceOnUse" x="0" y="0" width="1255" height="444">
<path d="M1255 0H0V444H1255V0Z" fill="white"/>
</mask>
<g mask="url(#mask7_1_62)">
<path d="M380.673 155.033C356.118 153.43 331.428 153.697 307.007 156.101C303.921 156.368 300.835 156.769 297.883 157.036C294.797 157.436 291.845 157.837 288.759 158.238C282.721 159.039 276.548 160.241 270.51 161.309C267.558 161.977 264.472 162.511 261.52 163.312C260.044 163.712 258.568 163.98 257.092 164.38L252.664 165.582C251.188 165.983 249.712 166.383 248.236 166.784L243.808 168.119L239.38 169.588C238.709 169.855 237.904 169.989 237.233 170.256L235.086 171.057C233.61 171.591 232.134 172.125 230.792 172.659L226.498 174.395C225.828 174.662 225.022 174.929 224.352 175.33L222.205 176.265C220.863 176.932 219.387 177.466 218.045 178.134L201.675 186.68C190.806 192.289 179.937 197.897 169.069 203.639L152.833 212.185L144.648 216.458C141.964 217.927 139.415 219.663 136.731 221.266C131.632 224.604 126.533 228.209 121.837 232.082C117.006 235.821 112.578 240.094 108.419 244.634C109.492 243.566 110.566 242.364 111.639 241.429C112.713 240.494 113.92 239.293 114.994 238.358L116.738 236.889L118.482 235.42C119.69 234.485 120.898 233.551 122.105 232.616C126.936 228.877 132.035 225.539 137.268 222.334C139.817 220.731 142.501 219.129 145.184 217.66L153.37 213.521L169.74 205.242C180.743 199.767 191.611 194.025 202.48 188.55L218.85 180.137C220.192 179.469 221.668 178.935 223.01 178.268L225.157 177.333C225.828 177.066 226.633 176.799 227.304 176.532L231.597 174.796L235.891 173.193L238.038 172.392C238.709 172.125 239.514 171.858 240.185 171.725L244.479 170.256L248.907 168.92C250.383 168.52 251.859 167.986 253.335 167.719L257.763 166.517C259.239 166.116 260.715 165.849 262.191 165.448C265.143 164.647 268.095 164.113 271.181 163.445C283.123 161.042 295.334 159.172 307.544 157.837C319.755 156.502 331.965 155.7 344.176 155.166C356.118 154.632 368.463 154.632 380.673 155.033Z" fill="black"/>
</g>
<mask id="mask8_1_62" style="mask-type:luminance" maskUnits="userSpaceOnUse" x="0" y="0" width="1255" height="444">
<path d="M1255 0H0V444H1255V0Z" fill="white"/>
</mask>
<g mask="url(#mask8_1_62)">
<path d="M666.48 159.039L464.805 184.677L454.07 176.131C454.07 176.131 495.801 169.989 666.48 159.039Z" fill="#000139"/>
</g>
<mask id="mask9_1_62" style="mask-type:luminance" maskUnits="userSpaceOnUse" x="0" y="0" width="1255" height="444">
<path d="M1255 0H0V444H1255V0Z" fill="white"/>
</mask>
<g mask="url(#mask9_1_62)">
<path d="M106.809 302.054V314.873C106.809 323.82 127.875 324.354 127.875 324.354L216.972 327.158C216.837 326.624 216.569 325.956 216.435 325.422C213.885 316.475 212.141 307.261 211.068 298.048C208.25 273.611 212.275 258.922 212.275 258.922C232.805 185.078 307.544 186.547 307.544 186.547C364.303 187.348 386.04 226.473 392.884 243.699C393.823 246.103 394.628 248.506 395.299 250.91C395.433 251.444 395.433 251.711 395.433 251.711C399.458 271.474 398.922 291.237 397.446 305.659C397.043 309.798 396.507 313.537 396.104 316.609C395.031 323.82 393.957 328.093 393.957 328.093L869.496 331.297C856.749 287.632 868.557 258.522 868.557 258.522C895.259 187.482 958.861 189.752 958.861 189.752C982.343 188.817 1005.15 197.63 1021.93 214.188C1022.6 214.856 1023.13 215.39 1023.81 216.058C1026.62 218.995 1029.31 222.067 1031.59 225.539C1034 225.004 1039.5 224.07 1046.88 223.001C1046.75 222.734 1046.75 222.601 1046.75 222.601C1044.87 219.53 1042.72 216.458 1040.44 213.654C1039.91 212.986 1039.37 212.452 1038.83 211.785C1026.35 197.363 998.713 173.594 953.628 176.398C953.628 176.398 921.961 176.131 885.732 204.841C885.732 204.841 880.231 210.85 875.266 207.111C875.266 207.111 868.02 199.633 853.529 200.034L409.79 226.073C409.79 226.073 397.446 227.942 392.749 218.194C388.053 208.446 360.948 169.588 291.711 175.998C291.711 175.998 245.552 176.398 210.799 226.206C204.761 235.687 194.429 241.696 183.158 242.364C183.158 242.364 132.571 247.038 117.946 244.367L148.002 219.129L141.83 220.464L117.409 241.963C117.409 241.963 111.907 246.236 112.176 255.851C112.176 256.652 112.176 257.453 112.31 258.388V259.189C112.444 267.201 112.713 280.555 112.847 288.032C112.847 291.237 112.981 293.374 112.981 293.374C112.981 293.374 125.594 292.306 126.399 296.045L136.463 283.092C136.463 283.092 133.376 303.522 111.505 307.261C111.505 307.261 104.527 303.656 111.505 295.51L112.847 294.309L112.713 292.172C109.626 294.042 107.479 297.113 106.54 300.718C106.674 301.252 106.809 301.653 106.809 302.054Z" fill="#000139"/>
</g>
<mask id="mask10_1_62" style="mask-type:luminance" maskUnits="userSpaceOnUse" x="0" y="0" width="1255" height="444">
<path d="M1255 0H0V444H1255V0Z" fill="white"/>
</mask>
<g mask="url(#mask10_1_62)">
<path d="M533.908 150.359C533.908 150.359 544.106 159.172 556.988 154.232L600.865 126.724L631.056 110.032C631.056 110.032 693.048 70.9065 757.589 77.7167C757.589 77.7167 814.348 83.1916 830.181 87.4647L822.533 129.928L826.827 134.736L880.768 129.928L878.084 136.605L933.635 130.195L905.055 110.432C905.055 110.432 907.067 110.165 910.019 110.032C913.508 109.898 917.131 110.032 920.62 110.566C923.437 110.967 926.255 111.768 928.805 112.836L948.127 121.916C948.127 121.916 953.628 124.854 967.449 121.649L977.244 129.928L1003.14 132.332L1057.08 137.273C1057.08 137.273 1019.24 122.183 955.909 104.423C953.762 103.756 951.616 103.222 949.334 102.554C948.664 102.42 948.127 102.153 947.456 102.02C946.785 101.886 946.114 101.619 945.443 101.486C914.447 93.0731 877.816 84.1263 837.025 76.1143C821.057 72.9095 806.431 70.3723 793.281 68.3693C754.905 62.4938 727.532 60.7579 708.344 60.7579C700.294 60.7579 693.719 61.1585 688.486 61.6926C675.202 62.8944 669.968 65.031 669.7 65.1645L684.863 73.1765C684.863 73.1765 628.641 94.0078 582.08 122.317L533.908 150.359Z" fill="#444444"/>
</g>
<mask id="mask11_1_62" style="mask-type:luminance" maskUnits="userSpaceOnUse" x="0" y="0" width="1255" height="444">
<path d="M1255 0H0V444H1255V0Z" fill="white"/>
</mask>
<g mask="url(#mask11_1_62)">
<path d="M1057.35 230.88C1061.91 233.284 1065.94 236.756 1069.16 241.029C1072.65 245.035 1076 248.907 1079.49 252.913C1082.98 256.919 1086.47 260.792 1089.96 264.664L1100.56 276.282V276.148C1102.17 278.151 1103.91 279.887 1105.79 281.623C1107.67 283.225 1109.82 284.694 1111.96 285.896C1114.24 287.098 1116.66 287.899 1119.07 288.433C1121.62 288.834 1124.17 288.7 1126.72 288.032C1129.14 287.365 1131.42 286.163 1133.43 284.694C1135.44 283.225 1137.32 281.623 1138.93 279.62C1142.15 275.881 1144.7 271.608 1146.31 267.068C1145.24 269.204 1144.17 271.341 1142.82 273.344C1141.48 275.347 1140.01 277.216 1138.26 278.952C1136.65 280.688 1134.77 282.157 1132.76 283.492C1130.75 284.828 1128.6 285.762 1126.32 286.43C1124.04 286.964 1121.76 286.964 1119.34 286.564C1117.06 286.163 1114.78 285.362 1112.77 284.16C1108.61 281.756 1104.99 278.685 1102.17 274.946L1091.57 263.329C1087.94 259.456 1084.46 255.584 1080.83 251.845C1077.21 248.106 1073.59 244.233 1069.96 240.361C1068.22 238.358 1066.34 236.488 1064.19 234.886C1062.05 233.284 1059.77 231.948 1057.35 230.88Z" fill="#0000BF"/>
</g>
<mask id="mask12_1_62" style="mask-type:luminance" maskUnits="userSpaceOnUse" x="0" y="0" width="1255" height="444">
<path d="M1255 0H0V444H1255V0Z" fill="white"/>
</mask>
<g mask="url(#mask12_1_62)">
<path d="M844.404 306.06L493.117 313.805C493.117 313.805 483.993 313.537 473.929 306.06L785.365 286.163C785.23 286.163 822.533 290.837 844.404 306.06Z" fill="#0000BF"/>
</g>
<mask id="mask13_1_62" style="mask-type:luminance" maskUnits="userSpaceOnUse" x="0" y="0" width="1255" height="444">
<path d="M1255 0H0V444H1255V0Z" fill="white"/>
</mask>
<g mask="url(#mask13_1_62)">
<path d="M396.104 316.742C405.362 316.742 466.952 316.208 468.294 313.805L397.446 305.659C397.043 309.932 396.506 313.671 396.104 316.742Z" fill="#0000BF"/>
</g>
<mask id="mask14_1_62" style="mask-type:luminance" maskUnits="userSpaceOnUse" x="0" y="0" width="1255" height="444">
<path d="M1255 0H0V444H1255V0Z" fill="white"/>
</mask>
<g mask="url(#mask14_1_62)">
<path d="M131.364 323.018C147.331 324.354 194.161 325.155 216.435 325.422C213.885 316.475 212.141 307.261 211.068 298.048C195.905 297.914 139.28 298.715 113.383 318.211C113.383 318.211 110.029 321.282 131.364 323.018Z" fill="#0000BF"/>
</g>
<mask id="mask15_1_62" style="mask-type:luminance" maskUnits="userSpaceOnUse" x="0" y="0" width="1255" height="444">
<path d="M1255 0H0V444H1255V0Z" fill="white"/>
</mask>
<g mask="url(#mask15_1_62)">
<path d="M906.396 109.631C906.396 109.631 907.738 109.765 910.019 110.032C912.569 110.299 916.326 110.566 920.62 110.566C931.086 110.7 945.309 109.631 955.909 104.423C953.762 103.756 951.616 103.222 949.334 102.554C948.529 103.889 944.906 106.961 928.67 108.563C930.146 108.296 944.37 106.293 947.322 102.02C946.651 101.886 945.98 101.619 945.309 101.486C943.162 103.489 934.977 107.228 906.396 109.631Z" fill="black"/>
</g>
<mask id="mask16_1_62" style="mask-type:luminance" maskUnits="userSpaceOnUse" x="0" y="0" width="1255" height="444">
<path d="M1255 0H0V444H1255V0Z" fill="white"/>
</mask>
<g mask="url(#mask16_1_62)">
<path d="M823.606 90.9365C822.533 94.6755 821.459 98.4144 820.52 102.153C819.581 105.892 818.642 109.631 817.837 113.37C817.031 117.109 816.226 120.982 815.421 124.721C814.616 128.46 813.945 132.332 813.409 136.205C814.482 132.466 815.555 128.727 816.495 124.988C817.434 121.249 818.373 117.51 819.178 113.771C819.983 110.032 820.789 106.159 821.594 102.42C822.265 98.548 822.935 94.809 823.606 90.9365Z" fill="black"/>
</g>
<mask id="mask17_1_62" style="mask-type:luminance" maskUnits="userSpaceOnUse" x="0" y="0" width="1255" height="444">
<path d="M1255 0H0V444H1255V0Z" fill="white"/>
</mask>
<g mask="url(#mask17_1_62)">
<path d="M834.207 87.5982C840.782 88.8 847.357 90.1353 853.931 91.4707C857.152 92.1383 860.506 92.9395 863.727 93.7407C866.947 94.5419 870.167 95.3432 873.388 96.2779C879.828 98.0138 886.135 100.15 892.173 102.955C895.125 104.29 897.943 106.026 900.358 108.162C901.566 109.231 902.371 110.566 902.639 112.035C902.773 113.504 902.371 115.106 901.432 116.308L901.566 116.174L891.234 124.587C887.745 127.391 884.391 130.329 880.902 133.133C884.525 130.463 888.014 127.792 891.636 125.121L902.237 116.976C902.774 116.308 903.176 115.507 903.444 114.572C903.713 113.637 903.847 112.703 903.713 111.901C903.31 110.165 902.371 108.563 901.163 107.361C898.614 105.091 895.796 103.222 892.71 101.753C886.537 98.9486 880.231 96.812 873.656 95.0761C870.436 94.1413 867.215 93.3401 863.861 92.6725C860.64 92.0048 857.286 91.3371 854.066 90.6695C850.711 90.0018 847.491 89.4677 844.136 89.0671C840.782 88.6665 837.427 87.9988 834.207 87.5982Z" fill="black"/>
</g>
<mask id="mask18_1_62" style="mask-type:luminance" maskUnits="userSpaceOnUse" x="0" y="0" width="1255" height="444">
<path d="M1255 0H0V444H1255V0Z" fill="white"/>
</mask>
<g mask="url(#mask18_1_62)">
<path d="M832.596 88.8C832.596 88.8 885.196 117.777 890.429 125.522C890.429 125.522 902.773 116.842 901.163 114.572C899.553 112.302 875.132 93.6072 832.596 88.8Z" fill="#101010"/>
</g>
<mask id="mask19_1_62" style="mask-type:luminance" maskUnits="userSpaceOnUse" x="0" y="0" width="1255" height="444">
<path d="M1255 0H0V444H1255V0Z" fill="white"/>
</mask>
<g mask="url(#mask19_1_62)">
<path d="M689.962 73.5771C688.888 73.9777 687.949 74.3783 687.01 74.7789C688.083 74.3783 689.022 73.9777 689.962 73.5771Z" fill="black"/>
</g>
<mask id="mask20_1_62" style="mask-type:luminance" maskUnits="userSpaceOnUse" x="0" y="0" width="1255" height="444">
<path d="M1255 0H0V444H1255V0Z" fill="white"/>
</mask>
<g mask="url(#mask20_1_62)">
<path d="M689.962 73.5771C699.22 70.2388 731.826 62.0932 811.127 72.3753C819.313 73.4436 827.9 74.6454 837.024 76.1143C821.057 72.9095 806.431 70.3723 793.281 68.3693C780.4 65.5651 773.02 64.2298 773.02 64.2298C750.477 59.9567 727.13 59.6896 708.344 60.7579C700.294 60.7579 693.719 61.1585 688.485 61.6926C684.863 62.2268 681.374 63.028 678.019 63.8292C676.141 64.3633 674.128 64.8974 672.384 65.4316C672.384 65.4316 720.957 59.289 785.633 67.7017C779.058 66.7669 723.373 60.4908 689.962 73.5771Z" fill="black"/>
</g>
<mask id="mask21_1_62" style="mask-type:luminance" maskUnits="userSpaceOnUse" x="0" y="0" width="1255" height="444">
<path d="M1255 0H0V444H1255V0Z" fill="white"/>
</mask>
<g mask="url(#mask21_1_62)">
<path d="M868.557 221.8L830.315 224.47L837.964 227.008L801.466 276.682C801.466 276.682 798.514 282.291 789.524 282.424C789.524 282.424 821.996 289.234 837.159 269.338L869.496 223.536C869.899 223.002 869.765 222.334 869.228 222.067C869.094 221.933 868.825 221.8 868.557 221.8Z" fill="#231F20"/>
</g>
<mask id="mask22_1_62" style="mask-type:luminance" maskUnits="userSpaceOnUse" x="0" y="0" width="1255" height="444">
<path d="M1255 0H0V444H1255V0Z" fill="white"/>
</mask>
<g mask="url(#mask22_1_62)">
<path d="M392.884 243.699C393.823 246.103 394.628 248.506 395.299 250.91C399.458 250.777 406.436 250.509 412.206 250.376C420.793 250.109 426.563 257.987 426.563 257.987L472.99 305.659C495.801 305.392 507.877 301.519 507.877 301.519C515.525 297.38 469.635 294.175 469.635 294.175L430.857 245.435L501.436 237.423L392.884 243.699Z" fill="#101010"/>
</g>
<mask id="mask23_1_62" style="mask-type:luminance" maskUnits="userSpaceOnUse" x="0" y="0" width="1255" height="444">
<path d="M1255 0H0V444H1255V0Z" fill="white"/>
</mask>
<g mask="url(#mask23_1_62)">
<path d="M600.731 128.994C600.731 128.994 600.462 133.267 608.916 135.67L596.705 150.893C596.705 150.893 608.648 157.703 612.807 148.356L616.967 136.071C616.967 136.071 628.372 134.736 630.251 131.397C630.385 131.531 610.526 136.472 600.731 128.994Z" fill="black"/>
</g>
<mask id="mask24_1_62" style="mask-type:luminance" maskUnits="userSpaceOnUse" x="0" y="0" width="1255" height="444">
<path d="M1255 0H0V444H1255V0Z" fill="white"/>
</mask>
<g mask="url(#mask24_1_62)">
<path d="M636.021 119.646L623.542 121.516C623.542 121.516 618.04 122.451 620.992 124.32C623.944 126.189 636.691 126.59 636.691 126.59C637.497 124.32 637.228 121.649 636.021 119.646Z" fill="black"/>
</g>
<mask id="mask25_1_62" style="mask-type:luminance" maskUnits="userSpaceOnUse" x="0" y="0" width="1255" height="444">
<path d="M1255 0H0V444H1255V0Z" fill="white"/>
</mask>
<g mask="url(#mask25_1_62)">
<path d="M633.337 112.302C633.337 112.302 611.734 110.432 605.696 119.646C605.696 119.646 615.625 112.703 615.625 116.842C615.625 116.842 611.6 119.913 617.235 122.451C612.002 123.118 607.037 124.454 602.207 126.59C602.341 126.59 600.462 103.355 633.337 112.302Z" fill="black"/>
</g>
<mask id="mask26_1_62" style="mask-type:luminance" maskUnits="userSpaceOnUse" x="0" y="0" width="1255" height="444">
<path d="M1255 0H0V444H1255V0Z" fill="white"/>
</mask>
<g mask="url(#mask26_1_62)">
<path d="M1109.41 147.688C1100.56 145.552 1091.7 143.816 1082.85 142.347C1080.56 141.946 1078.42 141.546 1076.14 141.145L1069.43 140.077C1067.15 139.676 1065 139.409 1062.72 139.009L1056.01 138.074C1038.03 135.67 1020.05 133.801 1001.93 132.733C992.943 132.065 983.819 131.798 974.829 131.397L971.474 131.264H968.12L961.277 131.13C956.714 131.13 952.152 130.997 947.724 130.997L933.904 131.397L927.06 131.531C925.987 131.531 924.779 131.531 923.706 131.664L920.351 131.798L906.799 132.466L899.956 132.733C897.675 132.866 895.393 133.133 893.247 133.267L879.694 134.469C877.413 134.736 875.132 134.869 872.985 135.003L866.276 135.804L839.306 139.009C821.325 141.145 803.345 143.282 785.365 145.418L731.424 152.095C713.443 154.365 695.463 156.635 677.617 158.905C695.597 157.036 713.577 155.033 731.558 153.163L785.499 147.154C803.479 145.151 821.459 143.015 839.44 141.012L866.41 137.807L873.119 137.006C875.4 136.739 877.682 136.605 879.828 136.472L893.381 135.403C895.662 135.27 897.943 135.003 900.09 134.869L906.799 134.469L920.351 133.801L923.706 133.667C924.779 133.667 925.987 133.667 927.06 133.534L933.904 133.4L947.456 133.133C952.018 133.133 956.446 133.133 961.008 133.267H967.852H971.206L974.561 133.4C983.551 133.801 992.675 133.934 1001.67 134.469C1019.78 135.403 1037.76 137.006 1055.74 139.142L1062.45 139.943C1064.73 140.211 1066.88 140.611 1069.16 140.878L1075.87 141.813C1078.15 142.08 1080.3 142.481 1082.58 142.881C1084.86 143.282 1087 143.549 1089.29 143.949L1095.99 145.151C1100.56 145.952 1104.99 146.754 1109.41 147.688Z" fill="black"/>
</g>
<mask id="mask27_1_62" style="mask-type:luminance" maskUnits="userSpaceOnUse" x="0" y="0" width="1255" height="444">
<path d="M1255 0H0V444H1255V0Z" fill="white"/>
</mask>
<g mask="url(#mask27_1_62)">
<path d="M939.137 130.062C945.577 135.804 952.957 140.344 960.874 143.549C969.864 147.421 978.049 153.03 984.893 160.107H1017.1C1017.1 160.107 1008.11 148.356 998.713 142.481C993.614 139.276 989.052 135.136 985.429 130.329C969.73 129.795 954.165 129.795 939.137 130.062Z" fill="#000139"/>
</g>
<mask id="mask28_1_62" style="mask-type:luminance" maskUnits="userSpaceOnUse" x="0" y="0" width="1255" height="444">
<path d="M1255 0H0V444H1255V0Z" fill="white"/>
</mask>
<g mask="url(#mask28_1_62)">
<path d="M1162.41 235.821C1160.4 241.696 1158.79 247.572 1157.05 253.447C1155.3 259.323 1153.96 265.332 1152.35 271.207C1150.74 277.083 1149 282.958 1146.98 288.834C1146.04 291.771 1144.97 294.576 1143.76 297.513C1142.69 300.318 1141.21 303.122 1139.74 305.792L1139.87 305.926C1141.62 303.389 1143.09 300.585 1144.3 297.78C1145.64 294.976 1146.85 292.172 1147.92 289.234C1150.07 283.492 1152.08 277.617 1153.96 271.741C1155.84 265.866 1157.72 259.99 1159.06 253.981C1160.54 247.972 1161.74 241.963 1162.41 235.821Z" fill="black"/>
</g>
<mask id="mask29_1_62" style="mask-type:luminance" maskUnits="userSpaceOnUse" x="0" y="0" width="1255" height="444">
<path d="M1255 0H0V444H1255V0Z" fill="white"/>
</mask>
<g mask="url(#mask29_1_62)">
<path d="M1137.46 312.069C1137.05 315.808 1133.7 318.612 1129.81 318.345C1122.97 318.078 1074.66 333.033 1052.79 325.555C1052.79 325.555 1055.2 333.835 1095.59 327.158C1135.98 320.481 1122.03 321.416 1138.66 318.879C1138.66 318.879 1146.58 316.208 1137.46 312.069Z" fill="black"/>
</g>
<mask id="mask30_1_62" style="mask-type:luminance" maskUnits="userSpaceOnUse" x="0" y="0" width="1255" height="444">
<path d="M1255 0H0V444H1255V0Z" fill="white"/>
</mask>
<g mask="url(#mask30_1_62)">
<path d="M867.215 224.47C862.519 226.34 857.823 228.209 853.126 230.079H852.992L852.858 230.212C851.248 232.616 849.638 234.886 848.027 237.29C846.417 239.693 844.807 241.963 843.197 244.367C839.977 249.041 836.89 253.848 833.67 258.655L827.9 266.266L822.265 273.878V274.011C822.13 274.145 821.996 274.412 821.862 274.546C821.728 274.813 821.459 274.946 821.325 275.08C821.191 275.213 820.923 275.48 820.654 275.614C820.386 275.747 820.252 276.014 819.983 276.148L819.313 276.682L818.507 277.083C817.971 277.35 817.434 277.617 816.897 277.884C814.75 278.819 812.469 279.62 810.188 280.288C808.981 280.555 807.907 280.822 806.7 281.089C805.492 281.356 804.284 281.623 803.077 281.756C801.869 281.89 800.661 282.157 799.454 282.291L795.831 282.691H799.454C800.661 282.691 801.869 282.558 803.077 282.424C804.284 282.291 805.492 282.157 806.7 282.023C807.907 281.89 809.115 281.623 810.322 281.356C812.738 280.822 815.153 280.154 817.434 279.219C817.971 278.952 818.642 278.685 819.178 278.418L819.983 278.017L820.789 277.483C821.057 277.35 821.325 277.083 821.594 276.949C821.862 276.816 822.13 276.549 822.399 276.282C822.667 276.014 822.935 275.881 823.07 275.614C823.338 275.347 823.606 275.08 823.741 274.679L823.606 274.813L829.51 267.335L835.28 259.857C838.366 255.05 841.587 250.376 844.539 245.569C846.015 243.165 847.625 240.762 849.101 238.358C850.577 235.954 852.187 233.551 853.663 231.147L853.395 231.414C858.091 229.011 862.653 226.74 867.215 224.47Z" fill="black"/>
</g>
<mask id="mask31_1_62" style="mask-type:luminance" maskUnits="userSpaceOnUse" x="0" y="0" width="1255" height="444">
<path d="M1255 0H0V444H1255V0Z" fill="white"/>
</mask>
<g mask="url(#mask31_1_62)">
<path d="M533.64 305.926L535.787 305.659L524.516 222.868C524.65 220.064 524.381 217.26 523.711 214.589C522.503 207.111 523.711 203.906 523.711 203.906L534.848 178.268C542.228 168.119 551.352 159.306 561.952 152.496L560.879 150.76C550.144 157.837 540.752 166.784 533.103 177.199L532.969 177.333L521.832 203.238C521.698 203.372 520.49 206.844 521.698 215.123V215.257C522.369 217.794 522.503 220.331 522.369 223.002V223.135L533.64 305.926Z" fill="#101010"/>
</g>
<mask id="mask32_1_62" style="mask-type:luminance" maskUnits="userSpaceOnUse" x="0" y="0" width="1255" height="444">
<path d="M1255 0H0V444H1255V0Z" fill="white"/>
</mask>
<g mask="url(#mask32_1_62)">
<path d="M480.102 309.398L748.867 301.119C750.612 301.386 768.055 303.656 783.754 284.294L842.392 204.707C843.197 203.906 852.992 192.022 850.711 175.597C848.698 161.977 839.037 149.424 821.728 138.208L820.52 139.943C837.293 150.76 846.686 162.778 848.564 175.864C850.845 191.621 840.916 203.372 840.782 203.372L782.144 282.958C766.713 301.92 749.404 298.982 749.27 298.982H749.136H749.001L480.102 307.261V309.398Z" fill="#101010"/>
</g>
<mask id="mask33_1_62" style="mask-type:luminance" maskUnits="userSpaceOnUse" x="0" y="0" width="1255" height="444">
<path d="M1255 0H0V444H1255V0Z" fill="white"/>
</mask>
<g mask="url(#mask33_1_62)">
<path d="M824.546 158.104C824.546 158.104 825.619 167.051 829.644 168.653C829.644 168.653 833.133 171.591 824.546 171.725C815.958 171.858 800.393 173.06 799.185 166.383C799.185 166.383 799.319 163.312 802.003 167.184C804.687 171.057 809.115 170.79 821.728 169.722C821.728 169.722 821.862 166.517 819.044 158.104H824.546Z" fill="#101010"/>
</g>
<mask id="mask34_1_62" style="mask-type:luminance" maskUnits="userSpaceOnUse" x="0" y="0" width="1255" height="444">
<path d="M1255 0H0V444H1255V0Z" fill="white"/>
</mask>
<g mask="url(#mask34_1_62)">
<path d="M802.271 165.048C802.271 165.048 816.092 157.57 819.581 159.439C819.447 159.439 820.118 160.908 802.271 165.048Z" fill="#FFC700"/>
</g>
<mask id="mask35_1_62" style="mask-type:luminance" maskUnits="userSpaceOnUse" x="0" y="0" width="1255" height="444">
<path d="M1255 0H0V444H1255V0Z" fill="white"/>
</mask>
<g mask="url(#mask35_1_62)">
<path d="M826.156 157.436C826.156 157.436 833.402 165.582 830.315 168.787C827.229 171.992 830.315 171.992 830.315 171.992C830.315 171.992 834.072 171.992 832.06 164.247C830.718 161.576 828.705 159.172 826.156 157.436Z" fill="#FFC700"/>
</g>
<mask id="mask36_1_62" style="mask-type:luminance" maskUnits="userSpaceOnUse" x="0" y="0" width="1255" height="444">
<path d="M1255 0H0V444H1255V0Z" fill="white"/>
</mask>
<g mask="url(#mask36_1_62)">
<path d="M488.152 207.244C488.152 207.244 457.022 173.995 451.387 176.932C445.617 179.87 450.984 188.016 477.015 204.974C476.881 204.974 490.836 213.12 488.152 207.244Z" fill="#101010"/>
</g>
<mask id="mask37_1_62" style="mask-type:luminance" maskUnits="userSpaceOnUse" x="0" y="0" width="1255" height="444">
<path d="M1255 0H0V444H1255V0Z" fill="white"/>
</mask>
<g mask="url(#mask37_1_62)">
<path d="M619.248 207.512L488.555 208.046V210.85L619.248 207.512Z" fill="black"/>
</g>
<mask id="mask38_1_62" style="mask-type:luminance" maskUnits="userSpaceOnUse" x="0" y="0" width="1255" height="444">
<path d="M1255 0H0V444H1255V0Z" fill="white"/>
</mask>
<g mask="url(#mask38_1_62)">
<path d="M582.214 155.567C582.214 155.567 594.424 158.371 602.341 164.514V167.184C602.341 167.184 609.184 170.122 610.66 176.131C610.66 176.131 621.663 185.879 642.998 180.938C642.998 180.938 647.023 178.935 624.749 169.454C621.395 163.045 615.625 158.371 608.648 156.502C608.648 156.502 587.715 150.76 582.214 155.567Z" fill="#000139"/>
</g>
<mask id="mask39_1_62" style="mask-type:luminance" maskUnits="userSpaceOnUse" x="0" y="0" width="1255" height="444">
<path d="M1255 0H0V444H1255V0Z" fill="white"/>
</mask>
<g mask="url(#mask39_1_62)">
<path d="M628.641 159.039C617.772 158.638 607.037 158.371 596.169 158.104L563.697 157.436C552.828 157.169 542.093 157.036 531.225 156.902L498.753 156.502L466.281 156.368C455.412 156.368 444.678 156.235 433.809 156.368C412.206 156.502 390.602 156.635 368.999 157.971C379.868 157.57 390.603 157.436 401.471 157.436C412.34 157.303 423.074 157.436 433.943 157.436C455.546 157.57 477.15 157.703 498.753 157.971L563.563 158.638L596.034 158.905L628.641 159.039Z" fill="black"/>
</g>
<mask id="mask40_1_62" style="mask-type:luminance" maskUnits="userSpaceOnUse" x="0" y="0" width="1255" height="444">
<path d="M1255 0H0V444H1255V0Z" fill="white"/>
</mask>
<g mask="url(#mask40_1_62)">
<path d="M524.784 152.229C524.784 152.229 499.96 151.294 498.216 145.552L472.99 152.229H524.784Z" fill="black"/>
</g>
<mask id="mask41_1_62" style="mask-type:luminance" maskUnits="userSpaceOnUse" x="0" y="0" width="1255" height="444">
<path d="M1255 0H0V444H1255V0Z" fill="white"/>
</mask>
<g mask="url(#mask41_1_62)">
<path d="M492.58 144.751L467.22 152.229C467.22 152.229 353.3 152.896 328.476 153.564C328.476 153.564 376.916 148.49 422.404 148.89C422.404 148.89 452.863 147.555 464 142.881L492.58 144.751Z" fill="black"/>
</g>
<mask id="mask42_1_62" style="mask-type:luminance" maskUnits="userSpaceOnUse" x="0" y="0" width="1255" height="444">
<path d="M1255 0H0V444H1255V0Z" fill="white"/>
</mask>
<g mask="url(#mask42_1_62)">
<path d="M218.984 178.935C216.837 179.202 214.825 179.603 212.812 180.137C208.384 181.072 203.956 182.274 199.662 183.876C191.075 186.814 182.889 190.82 175.107 195.627C171.216 198.031 167.459 200.701 163.97 203.506C160.347 206.31 156.992 209.381 153.772 212.586C155.248 210.85 156.724 209.114 158.334 207.512C159.944 205.909 161.689 204.307 163.299 202.838C166.788 199.767 170.411 196.962 174.302 194.425C178.193 191.888 182.084 189.485 186.244 187.481C190.404 185.478 194.697 183.609 198.991 182.14C203.419 180.671 207.847 179.469 212.409 178.535L215.764 177.867C216.837 177.6 218.045 177.6 219.253 177.333C219.924 177.199 220.594 177.199 221.4 177.066L218.984 178.935Z" fill="#FFC700"/>
</g>
<mask id="mask43_1_62" style="mask-type:luminance" maskUnits="userSpaceOnUse" x="0" y="0" width="1255" height="444">
<path d="M1255 0H0V444H1255V0Z" fill="white"/>
</mask>
<g mask="url(#mask43_1_62)">
<path d="M229.45 223.936C226.096 223.803 222.741 223.669 219.387 223.669H209.189C207.445 223.669 205.835 223.669 204.09 223.803L198.991 223.936L193.892 224.07C192.148 224.07 190.538 224.337 188.793 224.337L178.73 225.005C175.375 225.272 172.021 225.672 168.666 226.073C161.957 226.74 155.248 227.809 148.539 228.877L145.99 229.278C145.184 229.411 144.379 229.545 143.44 229.812L138.475 230.746L128.546 232.749L138.61 231.147L143.574 230.346C144.379 230.212 145.184 230.079 146.124 229.945L148.673 229.678C155.382 228.877 162.091 227.809 168.8 227.275L173.899 226.874C175.509 226.74 177.254 226.473 178.998 226.473L189.062 225.806C190.806 225.672 192.416 225.539 194.161 225.539L199.26 225.405L204.359 225.272C206.103 225.272 207.713 225.138 209.457 225.138C215.898 225.005 222.339 225.138 228.78 225.272L229.45 223.936Z" fill="#101010"/>
</g>
<mask id="mask44_1_62" style="mask-type:luminance" maskUnits="userSpaceOnUse" x="0" y="0" width="1255" height="444">
<path d="M1255 0H0V444H1255V0Z" fill="white"/>
</mask>
<g mask="url(#mask44_1_62)">
<path d="M172.692 252.112L113.115 255.317C113.115 255.317 110.834 259.323 125.862 273.744L126.131 298.982C126.131 298.982 138.073 288.433 144.648 255.984L172.692 252.112Z" fill="#101010"/>
</g>
<mask id="mask45_1_62" style="mask-type:luminance" maskUnits="userSpaceOnUse" x="0" y="0" width="1255" height="444">
<path d="M1255 0H0V444H1255V0Z" fill="white"/>
</mask>
<g mask="url(#mask45_1_62)">
<path d="M217.508 328.493L98.7576 325.422L217.374 330.63L217.508 328.493Z" fill="black"/>
</g>
<mask id="mask46_1_62" style="mask-type:luminance" maskUnits="userSpaceOnUse" x="0" y="0" width="1255" height="444">
<path d="M1255 0H0V444H1255V0Z" fill="white"/>
</mask>
<g mask="url(#mask46_1_62)">
<path d="M104.93 311.134C105.333 311.134 105.735 311.134 106.138 311L106.003 310.333L104.93 310.466V311.134Z" fill="black"/>
</g>
<mask id="mask47_1_62" style="mask-type:luminance" maskUnits="userSpaceOnUse" x="0" y="0" width="1255" height="444">
<path d="M1255 0H0V444H1255V0Z" fill="white"/>
</mask>
<g mask="url(#mask47_1_62)">
<path d="M82.6558 311.668L85.4736 313.537H90.7067L92.4511 311.801L105.064 310.867C98.8918 311 101.978 305.926 103.857 303.522L99.8311 306.327L82.6558 311.668Z" fill="black"/>
</g>
<mask id="mask48_1_62" style="mask-type:luminance" maskUnits="userSpaceOnUse" x="0" y="0" width="1255" height="444">
<path d="M1255 0H0V444H1255V0Z" fill="white"/>
</mask>
<g mask="url(#mask48_1_62)">
<path d="M1128.06 153.564H1121.49L1116.93 149.424V152.896L1109.41 149.958C1109.41 149.958 1125.11 176.131 1132.09 177.6C1132.09 177.6 1133.3 161.442 1128.06 153.564Z" fill="#101010"/>
</g>
<mask id="mask49_1_62" style="mask-type:luminance" maskUnits="userSpaceOnUse" x="0" y="0" width="1255" height="444">
<path d="M1255 0H0V444H1255V0Z" fill="white"/>
</mask>
<g mask="url(#mask49_1_62)">
<path d="M1053.33 303.923C1066.21 304.324 1109.95 293.24 1112.77 290.303C1115.99 287.098 1111.56 287.765 1111.56 287.765C1073.99 291.371 1058.56 290.169 1053.06 289.368C1053.46 295.777 1053.46 300.852 1053.33 303.923Z" fill="#0000BF"/>
</g>
<mask id="mask50_1_62" style="mask-type:luminance" maskUnits="userSpaceOnUse" x="0" y="0" width="1255" height="444">
<path d="M1255 0H0V444H1255V0Z" fill="white"/>
</mask>
<g mask="url(#mask50_1_62)">
<path d="M1021.93 214.322C1022.6 214.989 1023.13 215.524 1023.81 216.191L1021.93 214.322Z" fill="#101010"/>
</g>
<mask id="mask51_1_62" style="mask-type:luminance" maskUnits="userSpaceOnUse" x="0" y="0" width="1255" height="444">
<path d="M1255 0H0V444H1255V0Z" fill="white"/>
</mask>
<g mask="url(#mask51_1_62)">
<path d="M1021.93 214.322C1022.6 214.989 1023.13 215.524 1023.81 216.191L1040.44 213.788L1142.96 199.232L1147.25 198.565L1147.12 197.897L1146.98 196.562V196.428L1142.29 197.096L1038.7 211.785L1021.93 214.322Z" fill="#101010"/>
</g>
<mask id="mask52_1_62" style="mask-type:luminance" maskUnits="userSpaceOnUse" x="0" y="0" width="1255" height="444">
<path d="M1255 0H0V444H1255V0Z" fill="white"/>
</mask>
<g mask="url(#mask52_1_62)">
<path d="M866.813 335.838L807.505 335.17L748.196 334.636L629.714 333.835L511.232 333.434L451.923 333.3H392.615L451.923 333.968L511.232 334.502L629.714 335.303L748.196 335.704L807.505 335.838H866.813Z" fill="black"/>
</g>
<mask id="mask53_1_62" style="mask-type:luminance" maskUnits="userSpaceOnUse" x="0" y="0" width="1255" height="444">
<path d="M1255 0H0V444H1255V0Z" fill="white"/>
</mask>
<g mask="url(#mask53_1_62)">
<path d="M1057.22 137.139C1056.14 137.006 1055.07 136.739 1054 136.605L1057.22 138.875C1071.31 137.54 1085.39 138.875 1098.95 142.881C1120.95 149.558 1098.95 151.16 1098.95 151.16C1105.25 153.43 1111.96 153.831 1118.54 152.362L1116.66 148.757C1107.8 135.27 1053.59 134.736 1053.59 134.736L1057.22 137.139Z" fill="#000139"/>
</g>
<g clip-path="url(#clip0_1_62)">
<rect x="234" y="213" width="137" height="137" rx="64" fill="#101010"/>
<path fill-rule="evenodd" clip-rule="evenodd" d="M254.11 272.16C256.01 262.26 260.87 253.41 267.73 246.57C267.4 246.34 267.06 246.11 266.72 245.89C262.88 243.39 257.1 239.77 251.25 236.13C244.3 243.98 239.11 253.43 236.34 263.86C242.82 266.95 249.4 270.05 253.76 272.01C253.87 272.06 253.99 272.11 254.11 272.16ZM268.36 233.92C269.55 233.17 270.87 232.99 272.27 233.24C272.68 232.19 273.35 231.33 274.36 230.73C277.51 228.89 278.41 223.55 278.47 217.39C269.74 220.67 261.86 225.66 255.24 231.98C260.53 234.45 265.4 235.78 268.36 233.92ZM244.16 286.52C244.13 285.11 244.66 283.89 245.59 282.82C244.9 281.93 244.5 280.91 244.52 279.74C244.56 276.08 240.42 272.55 235.14 269.32C234.43 273.27 234.04 277.34 234.04 281.49C234.04 286.75 234.65 291.86 235.77 296.77C240.59 293.51 244.23 290.02 244.16 286.52ZM315.45 233.93C316.01 229.14 316.74 221.86 317.43 214.68C312.62 213.61 307.63 213.03 302.5 213.03C296.01 213.03 289.74 213.95 283.79 215.64C284.47 222.76 285.19 229.95 285.75 234.68C285.77 234.83 285.8 234.97 285.82 235.12C291.03 233.24 296.65 232.2 302.51 232.2C306.98 232.2 311.32 232.81 315.45 233.93ZM349.86 267.83C354.4 265.59 360.87 262.29 367.18 259.04C363.92 249.66 358.68 241.21 351.97 234.19C345.84 237.98 339.55 241.91 335.26 244.67C342.11 250.78 347.25 258.77 349.86 267.83ZM254.7 293.57C254.33 293.74 253.96 293.91 253.58 294.09C249.47 296.1 243.39 299.19 237.27 302.33C240.48 312.37 245.94 321.4 253.06 328.84C259.18 325.06 265.46 321.14 269.78 318.35C262.5 311.89 257.15 303.31 254.7 293.57ZM335.15 328.46C333.96 329.21 332.64 329.38 331.24 329.13C330.83 330.18 330.16 331.05 329.15 331.64C325.8 333.6 324.99 339.51 325.04 346.16C334.34 342.91 342.72 337.72 349.7 331.07C343.87 328.19 338.37 326.43 335.15 328.46ZM368.78 264.27C362.97 267.92 358.24 271.9 358.32 275.88C358.35 277.29 357.82 278.51 356.89 279.58C357.58 280.47 357.98 281.49 357.97 282.66C357.93 286.86 363.37 290.88 369.73 294.47C370.54 290.27 370.98 285.93 370.98 281.49C370.97 275.55 370.21 269.78 368.78 264.27ZM337.05 316.64C341.18 319.32 347.42 323.22 353.59 327.05C360.49 319.31 365.68 309.99 368.51 299.7C362.24 296.7 355.63 293.57 350.79 291.35C348.8 301.15 343.91 309.89 337.05 316.64ZM302.5 330.8C298.08 330.8 293.79 330.21 289.72 329.11C289.16 333.92 288.43 341.19 287.74 348.35C292.49 349.4 297.43 349.96 302.5 349.96C308.48 349.96 314.28 349.18 319.81 347.74C319.13 340.6 318.4 333.29 317.83 328.33C313 329.92 307.86 330.8 302.5 330.8ZM326.83 230.06C327.85 230.65 328.51 231.52 328.92 232.57C330.32 232.32 331.64 232.49 332.83 233.24C336.16 235.33 341.92 233.38 347.97 230.34C340.76 223.92 332.18 219.02 322.73 216.1C322.72 222.51 323.57 228.15 326.83 230.06ZM278.34 332.91C277.32 332.32 276.66 331.45 276.25 330.4C274.85 330.65 273.53 330.48 272.34 329.73C268.98 327.62 263.16 329.62 257.07 332.7C264.32 339.14 272.95 344.05 282.46 346.97C282.45 340.51 281.61 334.82 278.34 332.91Z" fill="#2F2F2F"/>
<path fill-rule="evenodd" clip-rule="evenodd" d="M294.79 303.53L287.16 299.13C287.16 299.13 284.96 306.09 278.46 310.77C271.96 315.45 256.22 326.1 256.22 326.1C256.22 326.1 258.2 328.05 260.15 326.95C265.54 323.91 275.51 315.79 279.78 318.31C280.42 318.69 281.11 318.79 281.82 318.7C282.11 319.55 282.62 320.23 283.4 320.66C287.82 323.09 286.14 336.1 286.39 342.42C286.48 344.7 289.2 345.43 289.2 345.43C289.2 345.43 289.99 326.04 290.55 317.89C291.12 309.74 295.37 303.89 295.37 303.89L294.78 303.56C294.78 303.55 294.79 303.53 294.79 303.53ZM317.35 263.35C317.35 263.35 319.56 256.38 326.06 251.7C332.56 247.02 348.32 236.36 348.32 236.36C348.32 236.36 346.34 234.41 344.39 235.51C339 238.55 329.01 246.68 324.74 244.16C324.1 243.78 323.41 243.68 322.7 243.77C322.41 242.92 321.9 242.24 321.12 241.81C316.7 239.38 318.38 226.36 318.13 220.03C318.04 217.74 315.32 217.02 315.32 217.02C315.32 217.02 314.53 236.42 313.96 244.58C313.39 252.74 309.14 258.59 309.14 258.59L309.73 258.92C309.73 258.93 309.72 258.94 309.72 258.94L317.35 263.35ZM279.19 286.58L279.18 285.9C279.19 285.9 279.21 285.9 279.21 285.9L279.2 277.1C279.2 277.1 272.07 278.67 264.77 275.38C257.47 272.09 240.38 263.78 240.38 263.78C240.38 263.78 239.68 266.47 241.61 267.61C246.93 270.75 258.96 275.33 258.91 280.29C258.9 281.04 259.16 281.68 259.59 282.25C259 282.93 258.66 283.7 258.68 284.6C258.78 289.64 246.68 294.69 241.33 298.07C239.39 299.29 240.13 302 240.13 302C240.13 302 257.31 292.99 264.66 289.4C272 285.82 279.19 286.58 279.19 286.58ZM362.91 294.84C357.58 291.69 345.55 287.11 345.6 282.15C345.61 281.4 345.35 280.76 344.92 280.19C345.51 279.51 345.85 278.73 345.83 277.84C345.73 272.79 357.84 267.74 363.19 264.36C365.13 263.14 364.39 260.42 364.39 260.42C364.39 260.42 347.19 269.44 339.84 273.03C332.49 276.62 325.3 275.86 325.3 275.86L325.31 276.54C325.3 276.54 325.28 276.54 325.28 276.54L325.29 285.35C325.29 285.35 332.43 283.78 339.74 287.07C347.05 290.36 364.15 298.68 364.15 298.68C364.15 298.68 364.84 295.98 362.91 294.84ZM286.08 263.92L286.66 263.58C286.66 263.59 286.67 263.6 286.67 263.6L294.29 259.19C294.29 259.19 289.36 253.8 288.56 245.83C287.76 237.86 286.41 218.91 286.41 218.91C286.41 218.91 283.73 219.65 283.71 221.89C283.65 228.07 285.7 240.78 281.38 243.21C280.73 243.58 280.3 244.12 280.03 244.78C279.15 244.61 278.31 244.7 277.54 245.17C273.23 247.78 262.8 239.82 257.2 236.88C255.18 235.82 253.19 237.81 253.19 237.81C253.19 237.81 269.59 248.18 276.36 252.75C283.13 257.32 286.08 263.92 286.08 263.92ZM318.42 298.5L317.84 298.84C317.84 298.83 317.83 298.82 317.83 298.82L310.2 303.23C310.2 303.23 315.13 308.62 315.94 316.6C316.74 324.58 318.1 343.55 318.1 343.55C318.1 343.55 320.78 342.81 320.8 340.57C320.86 334.38 318.81 321.67 323.13 319.23C323.78 318.86 324.21 318.32 324.48 317.66C325.36 317.83 326.21 317.74 326.97 317.27C331.29 314.66 341.72 322.62 347.33 325.57C349.36 326.64 351.34 324.64 351.34 324.64C351.34 324.64 334.93 314.26 328.15 309.68C321.37 305.1 318.42 298.5 318.42 298.5Z" fill="#2F2F2F"/>
</g>
<g clip-path="url(#clip1_1_62)">
<rect x="891" y="222" width="137" height="137" rx="64" fill="#101010"/>
<path fill-rule="evenodd" clip-rule="evenodd" d="M911.11 281.16C913.01 271.26 917.87 262.41 924.73 255.57C924.4 255.34 924.06 255.11 923.72 254.89C919.88 252.39 914.1 248.77 908.25 245.13C901.3 252.98 896.11 262.43 893.34 272.86C899.82 275.95 906.4 279.05 910.76 281.01C910.87 281.06 910.99 281.11 911.11 281.16ZM925.36 242.92C926.55 242.17 927.87 241.99 929.27 242.24C929.68 241.19 930.35 240.33 931.36 239.73C934.51 237.89 935.41 232.55 935.47 226.39C926.74 229.67 918.86 234.66 912.24 240.98C917.53 243.45 922.4 244.78 925.36 242.92ZM901.16 295.52C901.13 294.11 901.66 292.89 902.59 291.82C901.9 290.93 901.5 289.91 901.52 288.74C901.56 285.08 897.42 281.55 892.14 278.32C891.43 282.27 891.04 286.34 891.04 290.49C891.04 295.75 891.65 300.86 892.77 305.77C897.59 302.51 901.23 299.02 901.16 295.52ZM972.45 242.93C973.01 238.14 973.74 230.86 974.43 223.68C969.62 222.61 964.63 222.03 959.5 222.03C953.01 222.03 946.74 222.95 940.79 224.64C941.47 231.76 942.19 238.95 942.75 243.68C942.77 243.83 942.8 243.97 942.82 244.12C948.03 242.24 953.65 241.2 959.51 241.2C963.98 241.2 968.32 241.81 972.45 242.93ZM1006.86 276.83C1011.4 274.59 1017.87 271.29 1024.18 268.04C1020.92 258.66 1015.68 250.21 1008.97 243.19C1002.84 246.98 996.55 250.91 992.26 253.67C999.11 259.78 1004.25 267.77 1006.86 276.83ZM911.7 302.57C911.33 302.74 910.96 302.91 910.58 303.09C906.47 305.1 900.39 308.19 894.27 311.33C897.48 321.37 902.94 330.4 910.06 337.84C916.18 334.06 922.46 330.14 926.78 327.35C919.5 320.89 914.15 312.31 911.7 302.57ZM992.15 337.46C990.96 338.21 989.64 338.38 988.24 338.13C987.83 339.18 987.16 340.05 986.15 340.64C982.8 342.6 981.99 348.51 982.04 355.16C991.34 351.91 999.72 346.72 1006.7 340.07C1000.87 337.19 995.37 335.43 992.15 337.46ZM1025.78 273.27C1019.97 276.92 1015.24 280.9 1015.32 284.88C1015.35 286.29 1014.82 287.51 1013.89 288.58C1014.58 289.47 1014.98 290.49 1014.97 291.66C1014.93 295.86 1020.37 299.88 1026.73 303.47C1027.54 299.27 1027.98 294.93 1027.98 290.49C1027.97 284.55 1027.21 278.78 1025.78 273.27ZM994.05 325.64C998.18 328.32 1004.42 332.22 1010.59 336.05C1017.49 328.31 1022.68 318.99 1025.51 308.7C1019.24 305.7 1012.63 302.57 1007.79 300.35C1005.8 310.15 1000.91 318.89 994.05 325.64ZM959.5 339.8C955.08 339.8 950.79 339.21 946.72 338.11C946.16 342.92 945.43 350.19 944.74 357.35C949.49 358.4 954.43 358.96 959.5 358.96C965.48 358.96 971.28 358.18 976.81 356.74C976.13 349.6 975.4 342.29 974.83 337.33C970 338.92 964.86 339.8 959.5 339.8ZM983.83 239.06C984.85 239.65 985.51 240.52 985.92 241.57C987.32 241.32 988.64 241.49 989.83 242.24C993.16 244.33 998.92 242.38 1004.97 239.34C997.76 232.92 989.18 228.02 979.73 225.1C979.72 231.51 980.57 237.15 983.83 239.06ZM935.34 341.91C934.32 341.32 933.66 340.45 933.25 339.4C931.85 339.65 930.53 339.48 929.34 338.73C925.98 336.62 920.16 338.62 914.07 341.7C921.32 348.14 929.95 353.05 939.46 355.97C939.45 349.51 938.61 343.82 935.34 341.91Z" fill="#2F2F2F"/>
<path fill-rule="evenodd" clip-rule="evenodd" d="M951.79 312.53L944.16 308.13C944.16 308.13 941.96 315.09 935.46 319.77C928.96 324.45 913.22 335.1 913.22 335.1C913.22 335.1 915.2 337.05 917.15 335.95C922.54 332.91 932.51 324.79 936.78 327.31C937.42 327.69 938.11 327.79 938.82 327.7C939.11 328.55 939.62 329.23 940.4 329.66C944.82 332.09 943.14 345.1 943.39 351.42C943.48 353.7 946.2 354.43 946.2 354.43C946.2 354.43 946.99 335.04 947.55 326.89C948.12 318.74 952.37 312.89 952.37 312.89L951.78 312.56C951.78 312.55 951.79 312.53 951.79 312.53ZM974.35 272.35C974.35 272.35 976.56 265.38 983.06 260.7C989.56 256.02 1005.32 245.36 1005.32 245.36C1005.32 245.36 1003.34 243.41 1001.39 244.51C996 247.55 986.01 255.68 981.74 253.16C981.1 252.78 980.41 252.68 979.7 252.77C979.41 251.92 978.9 251.24 978.12 250.81C973.7 248.38 975.38 235.36 975.13 229.03C975.04 226.74 972.32 226.02 972.32 226.02C972.32 226.02 971.53 245.42 970.96 253.58C970.39 261.74 966.14 267.59 966.14 267.59L966.73 267.92C966.73 267.93 966.72 267.94 966.72 267.94L974.35 272.35ZM936.19 295.58L936.18 294.9C936.19 294.9 936.21 294.9 936.21 294.9L936.2 286.1C936.2 286.1 929.07 287.67 921.77 284.38C914.47 281.09 897.38 272.78 897.38 272.78C897.38 272.78 896.68 275.47 898.61 276.61C903.93 279.75 915.96 284.33 915.91 289.29C915.9 290.04 916.16 290.68 916.59 291.25C916 291.93 915.66 292.7 915.68 293.6C915.78 298.64 903.68 303.69 898.33 307.07C896.39 308.29 897.13 311 897.13 311C897.13 311 914.31 301.99 921.66 298.4C929 294.82 936.19 295.58 936.19 295.58ZM1019.91 303.84C1014.58 300.69 1002.55 296.11 1002.6 291.15C1002.61 290.4 1002.35 289.76 1001.92 289.19C1002.51 288.51 1002.85 287.73 1002.83 286.84C1002.73 281.79 1014.84 276.74 1020.19 273.36C1022.13 272.14 1021.39 269.42 1021.39 269.42C1021.39 269.42 1004.19 278.44 996.84 282.03C989.49 285.62 982.3 284.86 982.3 284.86L982.31 285.54C982.3 285.54 982.28 285.54 982.28 285.54L982.29 294.35C982.29 294.35 989.43 292.78 996.74 296.07C1004.05 299.36 1021.15 307.68 1021.15 307.68C1021.15 307.68 1021.84 304.98 1019.91 303.84ZM943.08 272.92L943.66 272.58C943.66 272.59 943.67 272.6 943.67 272.6L951.29 268.19C951.29 268.19 946.36 262.8 945.56 254.83C944.76 246.86 943.41 227.91 943.41 227.91C943.41 227.91 940.73 228.65 940.71 230.89C940.65 237.07 942.7 249.78 938.38 252.21C937.73 252.58 937.3 253.12 937.03 253.78C936.15 253.61 935.31 253.7 934.54 254.17C930.23 256.78 919.8 248.82 914.2 245.88C912.18 244.82 910.19 246.81 910.19 246.81C910.19 246.81 926.59 257.18 933.36 261.75C940.13 266.32 943.08 272.92 943.08 272.92ZM975.42 307.5L974.84 307.84C974.84 307.83 974.83 307.82 974.83 307.82L967.2 312.23C967.2 312.23 972.13 317.62 972.94 325.6C973.74 333.58 975.1 352.55 975.1 352.55C975.1 352.55 977.78 351.81 977.8 349.57C977.86 343.38 975.81 330.67 980.13 328.23C980.78 327.86 981.21 327.32 981.48 326.66C982.36 326.83 983.21 326.74 983.97 326.27C988.29 323.66 998.72 331.62 1004.33 334.57C1006.36 335.64 1008.34 333.64 1008.34 333.64C1008.34 333.64 991.93 323.26 985.15 318.68C978.37 314.1 975.42 307.5 975.42 307.5Z" fill="#2F2F2F"/>
</g>
<defs>
<clipPath id="clip0_1_62">
<rect x="234" y="213" width="137" height="137" rx="64" fill="white"/>
</clipPath>
<clipPath id="clip1_1_62">
<rect x="891" y="222" width="137" height="137" rx="64" fill="white"/>
</clipPath>
</defs>
</svg>
